<?xml version="1.0" standalone="no"?>
<!DOCTYPE svg PUBLIC "-//W3C//DTD SVG 20010904//EN"
 "http://www.w3.org/TR/2001/REC-SVG-20010904/DTD/svg10.dtd">
<svg version="1.0" xmlns="http://www.w3.org/2000/svg"
 width="289.000000pt" height="302.000000pt" viewBox="0 0 289.000000 302.000000"
 preserveAspectRatio="xMidYMid meet">

<g transform="translate(0.000000,302.000000) scale(0.100000,-0.100000)"
fill="#000000" stroke="none">
<path d="M1285 2960 c-227 -26 -474 -124 -665 -263 -79 -58 -223 -201 -284
-282 -361 -479 -378 -1124 -44 -1628 74 -111 251 -291 358 -364 103 -70 238
-136 361 -177 103 -35 260 -66 331 -66 34 0 39 -4 70 -60 18 -33 35 -60 38
-60 3 0 20 27 38 60 30 54 37 60 65 60 67 0 226 32 326 66 203 68 371 168 523
313 516 490 581 1285 152 1857 -70 93 -231 246 -324 309 -160 107 -348 185
-529 219 -104 20 -311 28 -416 16z"/>
</g>
</svg>
